# xmcd
#
# Track frame offsets: 
#        150
#        17854
#        35227
#        52818
#        70964
#        91626
#        107946
#        125883
#        143724
#        163006
#        181641
#        197487
#
# Disc length: 2859 seconds
#
# Revision: 0
# Processed by: cddbd v1.5.1PL2 Copyright (c) Steve Scherf et al.
# Submitted via: ExactAudioCopy v0.95b3
#
DISCID=a20b290c
DTITLE=Mike and Siriporn - Koo hit koo rong Vol 5
DYEAR=2004
DGENRE=Country
TTITLE0=Dao jai fah
TTITLE1=Oak huk plor huk ai
TTITLE2=Roey yim term raeng
TTITLE3=Yak yoo ngieb ngieb song kon
TTITLE4=Nang hang por hok
TTITLE5=Ruk nok hua jai
TTITLE6=Kong kao noey koey ai
TTITLE7=Pah kao bon bah sai
TTITLE8=Pieng rao huk gun
TTITLE9=Tarm roey kon soo
TTITLE10=Sirapin plaeng deaw
TTITLE11=Dor.Chor. Peak Panpaek
EXTD=
EXTT0=
EXTT1=
EXTT2=
EXTT3=
EXTT4=
EXTT5=
EXTT6=
EXTT7=
EXTT8=
EXTT9=
EXTT10=
EXTT11=
PLAYORDER=
